<?xml version="1.0" standalone="no"?>
<!DOCTYPE svg PUBLIC "-//W3C//DTD SVG 20010904//EN"
 "http://www.w3.org/TR/2001/REC-SVG-20010904/DTD/svg10.dtd">
<svg version="1.0" xmlns="http://www.w3.org/2000/svg"
 width="96.000000pt" height="97.000000pt" viewBox="0 0 96.000000 97.000000"
 preserveAspectRatio="xMidYMid meet">

<g transform="translate(0.000000,97.000000) scale(0.100000,-0.100000)"
fill="#000000" stroke="none">
<path d="M0 485 l0 -485 480 0 480 0 0 485 0 485 -480 0 -480 0 0 -485z m880
-5 l0 -400 -400 0 -400 0 0 400 0 400 400 0 400 0 0 -400z"/>
<path d="M310 535 l0 -205 40 0 39 0 3 83 3 82 88 3 87 3 0 -86 0 -85 40 0 40
0 0 205 0 205 -40 0 -40 0 0 -85 0 -85 -90 0 -90 0 0 85 0 85 -40 0 -40 0 0
-205z"/>
</g>
</svg>
